<svg width="304" height="304" viewBox="0 0 304 304" fill="none" xmlns="http://www.w3.org/2000/svg"
    style="border-radius: 80% 20% 80% 20% / 20% 80% 20% 80%">
    <defs>
        <linearGradient id="gradient1" x1="0%" y1="0%" x2="100%" y2="100%">
            <stop offset="0%" style="stop-color:#957373; stop-opacity:1" />
            <stop offset="100%" style="stop-color:#575795; stop-opacity:1" />
        </linearGradient>
    </defs>
    <!-- <rect width="304" height="304" fill="#957373" /> -->
    <rect width="304" height="304" fill="url(#gradient1)" />
    <path
        d="M97.75 221.5C93.3333 217.5 92.1667 214 94.25 211L100.75 201.625C103 198.375 106.625 198.625 111.625 202.375C118.208 207.292 125.042 211.333 132.125 214.5C139.292 217.667 147.958 219.25 158.125 219.25C165.625 219.25 171.958 218.125 177.125 215.875C182.292 213.625 186.417 210.417 189.5 206.25C192.667 202 194.25 196.875 194.25 190.875C194.25 186.542 193.583 182.542 192.25 178.875C191 175.125 188.958 172 186.125 169.5C183.292 167 180.333 165.042 177.25 163.625C172.167 161.292 164.542 158.583 154.375 155.5C144.292 152.417 135.458 149.083 127.875 145.5C120.375 141.917 114.375 137.583 109.875 132.5C105.458 127.417 102.5 122.208 101 116.875C99.5833 111.458 98.875 105.292 98.875 98.375C98.875 87.7917 101.958 78.6667 108.125 71C114.292 63.3333 121.833 58.25 130.75 55.75C139.75 53.25 148.875 52 158.125 52C168.708 52 177.917 53.375 185.75 56.125C193.583 58.875 200.583 62.4583 206.75 66.875C211.083 69.9583 212.083 73.2083 209.75 76.625L203.375 85.75C201.458 88.5 197.708 87.9167 192.125 84C187.875 81 182.667 78.2083 176.5 75.625C170.417 72.9583 164.375 71.625 158.375 71.625C150.708 71.625 144.333 72.5417 139.25 74.375C134.167 76.125 130.167 79.125 127.25 83.375C124.333 87.625 122.875 92.5417 122.875 98.125C122.875 101.625 123.208 104.875 123.875 107.875C124.542 110.792 126.25 113.792 129 116.875C131.75 119.958 135.083 122.333 139 124C144.25 126.25 152.375 128.917 163.375 132C174.458 135 184.125 138.708 192.375 143.125C200.042 147.208 205.542 151.5 208.875 156C212.292 160.417 214.917 165.25 216.75 170.5C218.667 175.667 219.625 181.5 219.625 188C219.625 199.833 216.583 209.708 210.5 217.625C204.417 225.542 197.208 231.042 188.875 234.125C180.542 237.208 170.083 238.75 157.5 238.75C142.417 238.75 129.917 237 120 233.5C110.083 230 102.667 226 97.75 221.5Z"
        fill="#efe8e8" />
</svg>
    