<svg xmlns="http://www.w3.org/2000/svg" version="1.1" xmlns:xlink="http://www.w3.org/1999/xlink" xmlns:svgjs="http://svgjs.dev/svgjs" width="1000" height="1000" viewBox="0 0 1000 1000"><rect width="1000" height="1000" fill="#ffffff"></rect><g transform="matrix(0.7,0,0,0.7,149.57605563665675,409.1525333333333)"><svg viewBox="0 0 396 103" data-background-color="#ffffff" preserveAspectRatio="xMidYMid meet" height="260" width="1000" xmlns="http://www.w3.org/2000/svg" xmlns:xlink="http://www.w3.org/1999/xlink"><g id="tight-bounds" transform="matrix(1,0,0,1,0.24008861730862918,-0.08632380952380458)"><svg viewBox="0 0 395.52 103.17264761904761" height="103.17264761904761" width="395.52"><g><svg viewBox="0 0 395.52 103.17264761904761" height="103.17264761904761" width="395.52"><g><svg viewBox="0 0 395.52 103.17264761904761" height="103.17264761904761" width="395.52"><g id="textblocktransform"><svg viewBox="0 0 395.52 103.17264761904761" height="103.17264761904761" width="395.52" id="textblock"><g><svg viewBox="0 0 395.52 103.17264761904761" height="103.17264761904761" width="395.52"><path d="M394.594 22.129C392.735 11.419 387.435 8.442 387.435 8.442 371.165-2.588 350.86-0.211 332.619 1.374 300.414 1.438 268.339 3.794 236.208 5.058 168.767 5.251 100.749 2.081 33.643 9.899 27.339 12.297-6.54 10.37 1.121 23.499 3.129 28.961 10.456 35.023 10.232 40.034 11.236 40.913 12.631 38.899 13.226 40.163 15.309 43.569 18.711 41.962 21.501 43.975 17.614 49.352 20.403 53.828 23.062 58.519 18.377 59.74 12.371 59.161 9.675 63.209 9.396 66.144 7.89 65.587 6.235 65.458 5.026 65.373 2.59 65.694 2.999 66.615 4.394 69.763-1.594 71.584 2.162 74.668-0.422 78.01 3.948 80.901 3.353 84.521 3.278 85.249 3.687 85.87 4.338 86.042 7.22 86.963 3.018 88.762 3.464 90.711 33.029 104.033 65.104 94.823 95.394 100.949 103.259 96.665 97.346 102.47 100.489 101.57 102.943 100.521 104.728 104.868 107.499 102.405 107.927 101.699 107.276 100.028 108.8 100.349 109.6 100.521 110.307 100.478 110.418 99.492 110.586 98.015 109.117 98.936 108.726 98.164 112.947 94.266 111.906 103.541 115.866 103.155 115.68 102.02 114.528 100.392 116.889 100.606 119.232 98.978 119.306 97.629 121.389 101.292 121.463 102.084 121.835 102.641 122.43 103.026 128.938 99.043 135.409 104.44 142.233 102.641 146.417 100.67 150.433 103.712 154.672 102.962 156.16 102.363 157.666 101.292 159.098 103.091 176.632 103.476 195.319 101.87 211.943 103.155 256.364 100.756 303.836 104.14 350.674 100.97 361.719 99.749 373.192 98.015 383.958 96.622 383.958 96.622 392.679 92.81 392.679 75.675S394.538 60.682 394.817 47.038C395.096 33.395 396.398 32.838 394.538 22.129Z" opacity="1" fill="#000000" data-fill-palette-color="tertiary"></path><g transform="matrix(1,0,0,1,55.76832,26.230666666666668)"><svg width="283.98335999999995" viewBox="2.7 -35 263.17 47" height="50.711314285714266" data-palette-color="#ffffff"><path d="M2.7-1.65L3.6-4.45Q6.85-2.95 9.8-2.95 12.75-2.95 14.28-4.13 15.8-5.3 15.8-7.25 15.8-9.2 14.5-10.28 13.2-11.35 11.33-11.95 9.45-12.55 7.58-13.25 5.7-13.95 4.4-15.35 3.1-16.75 3.1-18.9L3.1-18.9Q3.1-22.05 5.15-23.78 7.2-25.5 10.7-25.5 14.2-25.5 17.2-24.45L17.2-24.45 17.55-24.3 16.9-21.1Q13.9-22.25 11.33-22.25 8.75-22.25 7.8-21.45 6.85-20.65 6.85-18.75L6.85-18.75Q6.85-17.55 8.15-16.7 9.45-15.85 11.33-15.23 13.2-14.6 15.08-13.78 16.95-12.95 18.25-11.3 19.55-9.65 19.55-7.25L19.55-7.25Q19.55-3.75 17.1-1.73 14.65 0.3 10.35 0.3 6.05 0.3 2.7-1.65L2.7-1.65ZM37.15-14.95L37.15-14.95 39.2-14.95Q39.2-19.5 38.05-20.88 36.9-22.25 32.95-22.25 29-22.25 26.25-21.2L26.25-21.2 25.55-24.1Q29.75-25.5 34.25-25.5L34.25-25.5Q43.05-25.5 43.05-16.7L43.05-16.7 43.05 0 40.85 0 39.55-2.95Q37.25-1.05 35.57-0.38 33.9 0.3 31.7 0.3L31.7 0.3Q28.2 0.3 26.25-1.78 24.3-3.85 24.3-7.25L24.3-7.25Q24.3-14.95 37.15-14.95ZM39.25-6.55L39.25-11.8 37-11.8Q31.9-11.8 29.97-10.8 28.05-9.8 28.05-7.68 28.05-5.55 29.15-4.2 30.25-2.85 32.02-2.85 33.8-2.85 35.42-3.68 37.05-4.5 39.25-6.55L39.25-6.55ZM55.89-2.05L55.89 11.9 52.14 11.9 52.14-24.95 54.34-24.95 55.64-22.15Q57.74-23.75 59.57-24.63 61.39-25.5 63.59-25.5L63.59-25.5Q72.59-25.5 72.59-12.55L72.59-12.55Q72.59-5.2 69.39-2.3L69.39-2.3Q66.55 0.35 62.92 0.35 59.3 0.35 55.89-2.05L55.89-2.05ZM55.89-18.8L55.89-18.8 55.89-5.45Q56.89-4.25 58.59-3.55 60.3-2.85 61.84-2.85L61.84-2.85Q65.75-2.85 67.3-5.15 68.84-7.45 68.84-12.35 68.84-17.25 67.3-19.75 65.75-22.25 63.34-22.25L63.34-22.25Q61.74-22.25 60.17-21.6 58.59-20.95 57.82-20.38 57.05-19.8 55.89-18.8ZM82.49 0L78.74 0 78.74-25 82.49-25 82.49 0ZM78.74-35L82.49-35 82.49-30.55 78.74-30.55 78.74-35ZM108.19-11.7L108.19-11.7 92.24-11.7Q92.24-6.9 94.52-4.9 96.79-2.9 100.24-2.9L100.24-2.9Q101.99-2.9 102.69-3.08 103.39-3.25 104.02-3.43 104.64-3.6 104.89-3.7L104.89-3.7Q106.14-4.05 107.04-4.35L107.04-4.35 107.64-1.45Q102.64 0.3 99.84 0.3L99.84 0.3Q94.69 0.3 91.59-2.83 88.49-5.95 88.49-12.23 88.49-18.5 91.42-22 94.34-25.5 98.82-25.5 103.29-25.5 105.79-22.6 108.29-19.7 108.29-14.75L108.29-14.75Q108.29-13.4 108.19-11.7ZM92.49-14.55L92.49-14.55 104.69-14.55Q104.69-18.25 103.39-20.25 102.09-22.25 98.87-22.25 95.64-22.25 94.14-20.1 92.64-17.95 92.49-14.55ZM119.04-19.85L119.04-19.85 119.04 0 115.29 0 115.29-25 117.69-25 118.29-22.55Q119.44-23.45 120.16-23.95 120.89-24.45 122.49-24.98 124.09-25.5 125.89-25.5L125.89-25.5Q129.34-25.5 131.61-23.38 133.89-21.25 133.89-17.35L133.89-17.35 133.89 0 130.14 0 130.14-16.25Q130.14-22.3 125.09-22.3L125.09-22.3Q121.49-22.3 119.04-19.85ZM141.13-1.65L142.03-4.45Q145.28-2.95 148.24-2.95 151.19-2.95 152.71-4.13 154.24-5.3 154.24-7.25 154.24-9.2 152.94-10.28 151.63-11.35 149.76-11.95 147.88-12.55 146.01-13.25 144.13-13.95 142.84-15.35 141.53-16.75 141.53-18.9L141.53-18.9Q141.53-22.05 143.59-23.78 145.63-25.5 149.13-25.5 152.63-25.5 155.63-24.45L155.63-24.45 155.99-24.3 155.34-21.1Q152.34-22.25 149.76-22.25 147.19-22.25 146.24-21.45 145.28-20.65 145.28-18.75L145.28-18.75Q145.28-17.55 146.59-16.7 147.88-15.85 149.76-15.23 151.63-14.6 153.51-13.78 155.38-12.95 156.69-11.3 157.99-9.65 157.99-7.25L157.99-7.25Q157.99-3.75 155.53-1.73 153.09 0.3 148.78 0.3 144.49 0.3 141.13-1.65L141.13-1.65ZM166.68-5.3L166.68 0 162.93 0 162.93-5.3 166.68-5.3ZM178.38 0.5L178.38 0.5 169.93-25 174.18-25 180.53-4 186.93-25 191.08-25 182.48 0Q180.83 4.85 178.83 7.5 176.83 10.15 173.68 11.8L173.68 11.8 172.28 9.2Q174.28 8.05 176.03 5.8 177.78 3.55 178.38 0.5ZM211.63-12.33Q211.63-17.15 209.73-19.7 207.83-22.25 204.18-22.25 200.53-22.25 199-19.83 197.48-17.4 197.48-12.4L197.48-12.4Q197.48-2.95 204.43-2.95L204.43-2.95Q208.08-2.95 209.85-5.23 211.63-7.5 211.63-12.33ZM212.53-3.1Q209.68 0.3 204.48 0.3 199.28 0.3 196.5-3.08 193.73-6.45 193.73-12.53 193.73-18.6 196.4-22.05 199.08-25.5 204.25-25.5 209.43-25.5 212.4-22 215.38-18.5 215.38-12.5 215.38-6.5 212.53-3.1ZM236.28 1.7L236.28-2.65Q232.08 0.35 228.63 0.35L228.63 0.35Q219.63 0.35 219.63-12.6L219.63-12.6Q219.63-19.95 222.83-22.9L222.83-22.9Q225.68-25.5 229.75-25.5 233.83-25.5 236.58-21.8L236.58-21.8 237.88-25.05 240.08-25.05 240.08 1.25Q240.08 6.7 237.38 9.35 234.68 12 230.08 12L230.08 12Q227.73 12 225.88 11.4 224.03 10.8 222.03 10.05L222.03 10.05 222.73 7.4Q226.93 8.75 229.75 8.75 232.58 8.75 234.43 7 236.28 5.25 236.28 1.7L236.28 1.7ZM236.28-6.25L236.28-6.25 236.28-15.6Q236.28-18.55 234.33-20.4 232.38-22.25 230.33-22.25L230.33-22.25Q226.43-22.25 224.88-19.98 223.33-17.7 223.33-12.7L223.33-12.7Q223.33-2.9 228.83-2.9L228.83-2.9Q232.43-2.9 236.28-6.25ZM259.97-14.95L259.97-14.95 262.02-14.95Q262.02-19.5 260.87-20.88 259.72-22.25 255.77-22.25 251.82-22.25 249.07-21.2L249.07-21.2 248.37-24.1Q252.57-25.5 257.07-25.5L257.07-25.5Q265.87-25.5 265.87-16.7L265.87-16.7 265.87 0 263.67 0 262.37-2.95Q260.07-1.05 258.4-0.38 256.72 0.3 254.52 0.3L254.52 0.3Q251.02 0.3 249.07-1.78 247.12-3.85 247.12-7.25L247.12-7.25Q247.12-14.95 259.97-14.95ZM262.07-6.55L262.07-11.8 259.82-11.8Q254.72-11.8 252.8-10.8 250.87-9.8 250.87-7.68 250.87-5.55 251.97-4.2 253.07-2.85 254.85-2.85 256.62-2.85 258.25-3.68 259.87-4.5 262.07-6.55L262.07-6.55Z" opacity="1" transform="matrix(1,0,0,1,0,0)" fill="#ffffff" class="undefined-text-0" data-fill-palette-color="quaternary" id="text-0"></path></svg></g></svg></g></svg></g></svg></g><g></g></svg></g><defs></defs></svg><rect width="395.52" height="103.17264761904761" fill="none" stroke="none" visibility="hidden"></rect></g></svg></g></svg>